<?xml version="1.0" encoding="UTF-8"?>
<svg version="1.1" xmlns="http://www.w3.org/2000/svg" width="225" height="225">
<path d="M0 0 C74.25 0 148.5 0 225 0 C225 74.25 225 148.5 225 225 C150.75 225 76.5 225 0 225 C0 150.75 0 76.5 0 0 Z " fill="#FEFEFE" transform="translate(0,0)"/>
<path d="M0 0 C9.57 0 19.14 0 29 0 C29.495 4.455 29.495 4.455 30 9 C30.82242188 9.21914063 31.64484375 9.43828125 32.4921875 9.6640625 C47.4326194 13.90811128 58.03837611 20.92933994 65.75 34.61328125 C68.41778613 39.70708539 70.12747029 44.26852043 71 50 C70.07316406 49.98839844 69.14632812 49.97679687 68.19140625 49.96484375 C66.39509766 49.95130859 66.39509766 49.95130859 64.5625 49.9375 C63.36753906 49.92589844 62.17257813 49.91429687 60.94140625 49.90234375 C58.11126659 49.66098208 58.11126659 49.66098208 57 51 C64.59 51 72.18 51 80 51 C80 60.57 80 70.14 80 80 C75.545 80.495 75.545 80.495 71 81 C70.78085938 81.82242188 70.56171875 82.64484375 70.3359375 83.4921875 C66.18082558 98.11953272 59.21535372 109.02465762 45.80859375 116.6796875 C40.73680323 119.06392282 35.40384602 120.56010372 30 122 C29.67 124.97 29.34 127.94 29 131 C19.43 131 9.86 131 0 131 C0 123.41 0 115.82 0 108 C-1.33901792 109.11126659 -1.33901792 109.11126659 -1.09765625 111.94140625 C-1.08605469 113.13636719 -1.07445312 114.33132812 -1.0625 115.5625 C-1.05347656 116.76003906 -1.04445312 117.95757812 -1.03515625 119.19140625 C-1.02355469 120.11824219 -1.01195312 121.04507813 -1 122 C-13.99775721 119.86922013 -24.50859382 112.95720758 -32.81640625 102.7734375 C-37.46208055 96.18333311 -40.57868765 88.93683334 -42 81 C-44.97 80.67 -47.94 80.34 -51 80 C-51 70.43 -51 60.86 -51 51 C-43.41 51 -35.82 51 -28 51 C-29.11126659 49.66098208 -29.11126659 49.66098208 -31.94140625 49.90234375 C-33.13636719 49.91394531 -34.33132812 49.92554688 -35.5625 49.9375 C-36.76003906 49.94652344 -37.95757812 49.95554688 -39.19140625 49.96484375 C-40.58166016 49.98224609 -40.58166016 49.98224609 -42 50 C-39.87446673 37.03424704 -32.97519146 26.40494651 -22.73828125 18.18359375 C-15.99516836 13.4881277 -9.15472527 10.17829364 -1 9 C-1.01160156 9.92683594 -1.02320313 10.85367188 -1.03515625 11.80859375 C-1.04417969 13.00613281 -1.05320313 14.20367187 -1.0625 15.4375 C-1.07410156 16.63246094 -1.08570313 17.82742187 -1.09765625 19.05859375 C-1.33901792 21.88873341 -1.33901792 21.88873341 0 23 C0 15.41 0 7.82 0 0 Z " fill="#FEFDFE" transform="translate(98,47)"/>
<path d="M0 0 C3.63576129 0.24789282 5.55500567 0.62526793 8.375 3 C10.68040626 7.25613464 11.04656316 10.36340808 10 15 C6.55227431 24.14269508 1.56702898 32.76464506 -5 40 C-5.60328125 40.68320313 -6.2065625 41.36640625 -6.828125 42.0703125 C-14.87704436 50.67545799 -27.71960009 59.95875497 -39.875 60.5625 C-42.93579957 60.35954376 -44.20323798 59.88991276 -47 58.375 C-49.38610107 55.54150498 -49.5252823 53.60983252 -50 50 C-49.05640625 49.72027344 -48.1128125 49.44054687 -47.140625 49.15234375 C-38.37494048 46.45494528 -30.66817837 43.15478455 -23 38 C-22.34644531 37.56300781 -21.69289062 37.12601563 -21.01953125 36.67578125 C-9.57217236 27.9527366 -3.69266755 13.39990725 0 0 Z " fill="#6E03AD" transform="translate(178,128)"/>
<path d="M0 0 C0.27972656 0.94359375 0.55945312 1.8871875 0.84765625 2.859375 C3.54505472 11.62505952 6.84521545 19.33182163 12 27 C12.43699219 27.65355469 12.87398437 28.30710938 13.32421875 28.98046875 C21.88725561 40.21784745 36.70138418 46.67534605 50 50 C49.75210718 53.63576129 49.37473207 55.55500567 47 58.375 C42.74386536 60.68040626 39.63659192 61.04656316 35 60 C25.85172056 56.55016844 17.24660132 51.56130905 10 45 C9.32839844 44.41992188 8.65679687 43.83984375 7.96484375 43.2421875 C-0.63568788 35.3210813 -9.86446345 22.32519453 -10.5 10.25 C-10.31141644 6.10116166 -9.06919054 3.88864992 -6 1 C-4 0 -4 0 0 0 Z " fill="#6D03AD" transform="translate(47,128)"/>
<path d="M0 0 C9.14827944 3.44983156 17.75339868 8.43869095 25 15 C25.67160156 15.58007812 26.34320313 16.16015625 27.03515625 16.7578125 C35.63568788 24.6789187 44.86446345 37.67480547 45.5 49.75 C45.33574945 52.88171046 44.92228227 54.14347888 43.375 57 C40.54150498 59.38610107 38.60983252 59.5252823 35 60 C34.72027344 59.05640625 34.44054687 58.1128125 34.15234375 57.140625 C31.45494528 48.37494048 28.15478455 40.66817837 23 33 C22.56300781 32.34644531 22.12601563 31.69289063 21.67578125 31.01953125 C12.9527366 19.57217236 -1.60009275 13.69266755 -15 10 C-14.75210718 6.36423871 -14.37473207 4.44499433 -12 1.625 C-7.74386536 -0.68040626 -4.63659192 -1.04656316 0 0 Z " fill="#6D03AD" transform="translate(143,37)"/>
<path d="M0 0 C2.38610107 2.83349502 2.5252823 4.76516748 3 8.375 C2.05640625 8.65472656 1.1128125 8.93445312 0.140625 9.22265625 C-18.57287154 14.97952454 -31.52340414 24.10433706 -41 41.375 C-43.63494536 46.85271739 -45.46814966 52.50290703 -47 58.375 C-50.63576129 58.12710718 -52.55500567 57.74973207 -55.375 55.375 C-57.68040626 51.11886536 -58.04656316 48.01159192 -57 43.375 C-53.55016844 34.22672056 -48.56130905 25.62160132 -42 18.375 C-41.41992188 17.70339844 -40.83984375 17.03179687 -40.2421875 16.33984375 C-31.67208261 7.03464618 -13.21473964 -7.15798397 0 0 Z " fill="#6D03AD" transform="translate(94,38.625)"/>
<path d="M0 0 C0 4.29 0 8.58 0 13 C-0.86882812 13.44730469 -1.73765625 13.89460938 -2.6328125 14.35546875 C-15.46835589 21.08910393 -21.75841758 27.82332599 -28 41 C-32.29 41 -36.58 41 -41 41 C-38.87446673 28.03424704 -31.97519146 17.40494651 -21.73828125 9.18359375 C-15.63963791 4.93689446 -7.68819924 0 0 0 Z " fill="#6D02AC" transform="translate(97,56)"/>
<path d="M0 0 C0.33 0 0.66 0 1 0 C1 8.25 1 16.5 1 25 C0.34 24.67 -0.32 24.34 -1 24 C-1 20.04 -1 16.08 -1 12 C-14.45708047 15.60119055 -25.92451637 21.90710335 -33.4375 34.125 C-36.48783291 39.68280996 -38.74647659 44.73238294 -40 51 C-35.71 51 -31.42 51 -27 51 C-27 51.66 -27 52.32 -27 53 C-35.25 53 -43.5 53 -52 53 C-51.01 52.505 -51.01 52.505 -50 52 C-49.56657715 50.11716455 -49.56657715 50.11716455 -49.3125 47.8125 C-46.48154138 32.47265447 -36.52174635 19.83301375 -24.08203125 10.9765625 C-16.46016706 6.08852285 -8.94656385 3.30025982 0 2 C0 1.34 0 0.68 0 0 Z " fill="#F5F0F9" transform="translate(97,45)"/>
<path d="M0 0 C4.62 0 9.24 0 14 0 C14.515625 1.464375 15.03125 2.92875 15.5625 4.4375 C19.62991533 14.45723045 25.45995584 20.11248969 35 25 C35.97646484 25.51046875 35.97646484 25.51046875 36.97265625 26.03125 C38.3034573 26.71080798 39.6495754 27.36032519 41 28 C41 32.29 41 36.58 41 41 C28.00224279 38.86922013 17.49140618 31.95720758 9.18359375 21.7734375 C4.48156943 15.10339799 1.59558257 7.97791284 0 0 Z " fill="#6D02AC" transform="translate(56,128)"/>
<path d="M0 0 C14.73613258 4.07595156 26.08182075 9.73567537 34.3125 23.0625 C37.7040258 29.08061507 39.84667127 34.08002764 41 41 C36.71 41 32.42 41 28 41 C27.55269531 40.13117188 27.10539062 39.26234375 26.64453125 38.3671875 C20.01001492 25.7205828 14.00208289 18.66736096 0 14 C0 9.38 0 4.76 0 0 Z " fill="#6D02AC" transform="translate(128,56)"/>
<path d="M0 0 C4.62 0 9.24 0 14 0 C9.66637859 15.66770818 3.26622667 27.4246272 -11.19140625 35.6796875 C-16.28698904 38.07510751 -21.58043183 39.50097051 -27 41 C-27 36.38 -27 31.76 -27 27 C-25.535625 26.484375 -24.07125 25.96875 -22.5625 25.4375 C-12.74537425 21.45233014 -6.5238276 15.59644741 -2 6 C-1.34 4.02 -0.68 2.04 0 0 Z " fill="#6D02AC" transform="translate(155,128)"/>
<path d="M0 0 C7.92 0 15.84 0 24 0 C24 0.33 24 0.66 24 1 C18.06 1.495 18.06 1.495 12 2 C16.56188311 17.08930568 22.67200375 27.80387163 36.57421875 35.71484375 C41.36786378 38.25447211 45.61512399 39.9230248 51 41 C51 36.71 51 32.42 51 28 C51.66 28 52.32 28 53 28 C53 36.25 53 44.5 53 53 C52.67 52.34 52.34 51.68 52 51 C50.11716455 50.56657715 50.11716455 50.56657715 47.8125 50.3125 C33.40986726 47.63772535 20.34764989 38.38821073 12.0625 26.5 C7.02043483 18.91286119 3.85676484 11.99166958 2.4921875 2.96875 C2.32976563 2.3190625 2.16734375 1.669375 2 1 C1.34 0.67 0.68 0.34 0 0 Z " fill="#F5F0F9" transform="translate(45,127)"/>
<path d="M0 0 C0.33 0.66 0.66 1.32 1 2 C2.88283545 2.43342285 2.88283545 2.43342285 5.1875 2.6875 C19.47521033 5.34093192 32.59239914 14.5610286 40.875 26.3125 C46.14893071 34.39352286 49.9319267 42.3873403 51 52 C51.99 52.495 51.99 52.495 53 53 C44.75 53 36.5 53 28 53 C28.33 52.34 28.66 51.68 29 51 C32.96 51 36.92 51 41 51 C37.42808659 37.65232357 31.16704238 26.27110663 19.1875 18.625 C13.71971206 15.59403724 7.9692446 13.80465534 2 12 C1.67 15.96 1.34 19.92 1 24 C0.67 24 0.34 24 0 24 C0 16.08 0 8.16 0 0 Z " fill="#F5F1F9" transform="translate(127,45)"/>
<path d="M0 0 C7.92 0 15.84 0 24 0 C23.34 0.33 22.68 0.66 22 1 C21.56657715 2.88283545 21.56657715 2.88283545 21.3125 5.1875 C18.63772535 19.59013274 9.38821073 32.65235011 -2.5 40.9375 C-10.08713881 45.97956517 -17.00833042 49.14323516 -26.03125 50.5078125 C-27.00578125 50.75144531 -27.00578125 50.75144531 -28 51 C-28.33 51.66 -28.66 52.32 -29 53 C-29 45.08 -29 37.16 -29 29 C-28.67 29 -28.34 29 -28 29 C-27.67 32.96 -27.34 36.92 -27 41 C-12.18446791 36.52088565 -1.20804741 30.44040957 6.64453125 16.77734375 C8.97264374 12.0070614 10.46534155 7.07617794 12 2 C8.04 1.67 4.08 1.34 0 1 C0 0.67 0 0.34 0 0 Z " fill="#F5F1F9" transform="translate(156,127)"/>
<path d="M0 0 C9.57 0 19.14 0 29 0 C29 2.97 29 5.94 29 9 C19.43 9 9.86 9 0 9 C0 6.03 0 3.06 0 0 Z " fill="#6D00AC" transform="translate(98,169)"/>
<path d="M0 0 C2.97 0 5.94 0 9 0 C9 9.57 9 19.14 9 29 C6.03 29 3.06 29 0 29 C0 19.43 0 9.86 0 0 Z " fill="#6C00AC" transform="translate(169,98)"/>
<path d="M0 0 C2.97 0 5.94 0 9 0 C9 9.57 9 19.14 9 29 C6.03 29 3.06 29 0 29 C0 19.43 0 9.86 0 0 Z " fill="#6C00AC" transform="translate(47,98)"/>
<path d="M0 0 C9.57 0 19.14 0 29 0 C29 2.97 29 5.94 29 9 C19.43 9 9.86 9 0 9 C0 6.03 0 3.06 0 0 Z " fill="#6C00AC" transform="translate(98,47)"/>
<path d="M0 0 C6.27 0 12.54 0 19 0 C17.43428158 7.82859211 13.30013693 12.4130582 7 17 C4.30071894 18.55727754 3.19009416 19 0 19 C0 12.73 0 6.46 0 0 Z " fill="#7615B1" transform="translate(127,127)"/>
<path d="M0 0 C6.27 0 12.54 0 19 0 C19 6.27 19 12.54 19 19 C11.17140789 17.43428158 6.5869418 13.30013693 2 7 C0.44272246 4.30071894 0 3.19009416 0 0 Z " fill="#7614B1" transform="translate(79,127)"/>
<path d="M0 0 C0 6.27 0 12.54 0 19 C-6.27 19 -12.54 19 -19 19 C-17.43428158 11.17140789 -13.30013693 6.5869418 -7 2 C-4.30071894 0.44272246 -3.19009416 0 0 0 Z " fill="#7615B1" transform="translate(98,79)"/>
<path d="M0 0 C7.82859211 1.56571842 12.4130582 5.69986307 17 12 C18.55727754 14.69928106 19 15.80990584 19 19 C12.73 19 6.46 19 0 19 C0 12.73 0 6.46 0 0 Z " fill="#7614B1" transform="translate(127,79)"/>
</svg>
